<svg width="18" height="18" viewBox="0 0 18 18" fill="none" xmlns="http://www.w3.org/2000/svg">
<g clip-path="url(#clip0)">
<path d="M17.0065 0H0.993516C0.730019 0 0.477314 0.104674 0.290994 0.290994C0.104674 0.477314 0 0.730019 0 0.993516L0 17.0065C0 17.27 0.104674 17.5227 0.290994 17.709C0.477314 17.8953 0.730019 18 0.993516 18H9.61523V11.0391H7.27734V8.31445H9.61523V6.31055C9.61523 3.98566 11.0352 2.71969 13.1091 2.71969C14.1022 2.71969 14.9562 2.79352 15.2051 2.82516V5.2548H13.7749C12.6464 5.2548 12.4277 5.79094 12.4277 6.57809V8.31445H15.1256L14.7741 11.0391H12.4277V18H17.0065C17.27 18 17.5227 17.8953 17.709 17.709C17.8953 17.5227 18 17.27 18 17.0065V0.993516C18 0.730019 17.8953 0.477314 17.709 0.290994C17.5227 0.104674 17.27 0 17.0065 0V0Z" fill="#4267B2"/>
<path d="M12.4277 18.0002V11.0392H14.7744L15.126 8.31463H12.4277V6.57932C12.4277 5.79217 12.6464 5.25604 13.7749 5.25604H15.2051V2.82568C14.9562 2.79264 14.1022 2.72021 13.1091 2.72021C11.0348 2.72021 9.61523 3.98584 9.61523 6.31107V8.31498H7.27734V11.0392H9.61523V18.0002H12.4277Z" fill="white"/>
</g>
<defs>
<clipPath id="clip0">
<rect width="18" height="18" fill="white"/>
</clipPath>
</defs>
</svg>
