<svg width="18" height="18" viewBox="0 0 18 18" fill="none" xmlns="http://www.w3.org/2000/svg">
<path d="M15.9998 8.34421C15.9998 7.67302 15.9454 7.18322 15.8275 6.67529H8.16309V9.70474H12.6619C12.5713 10.4576 12.0815 11.5914 10.993 12.3532L10.9777 12.4547L13.4011 14.332L13.569 14.3488C15.1109 12.9247 15.9998 10.8295 15.9998 8.34421Z" fill="#4285F4"/>
<path d="M8.16363 16.3266C10.3677 16.3266 12.218 15.6009 13.5695 14.3493L10.9935 12.3537C10.3042 12.8345 9.37902 13.1701 8.16363 13.1701C6.00492 13.1701 4.17273 11.7461 3.51961 9.77783L3.42387 9.78596L0.904047 11.7361L0.871094 11.8277C2.21348 14.4943 4.97086 16.3266 8.16363 16.3266Z" fill="#34A853"/>
<path d="M3.51924 9.77813C3.34691 9.2702 3.24717 8.72594 3.24717 8.16361C3.24717 7.60122 3.34691 7.05702 3.51017 6.54909L3.50561 6.44092L0.954205 4.45947L0.870727 4.49918C0.317464 5.60577 0 6.84842 0 8.16361C0 9.4788 0.317464 10.7214 0.870727 11.828L3.51924 9.77813Z" fill="#FBBC05"/>
<path d="M8.16363 3.15644C9.69649 3.15644 10.7305 3.81857 11.3201 4.3719L13.6239 2.12245C12.209 0.80726 10.3677 0 8.16363 0C4.97086 0 2.21348 1.83219 0.871094 4.49883L3.51054 6.54875C4.17273 4.5805 6.00492 3.15644 8.16363 3.15644Z" fill="#EB4335"/>
</svg>
